<mxfile host="app.diagrams.net" agent="Mozilla/5.0 (Windows NT 10.0; Win64; x64) AppleWebKit/537.36 (KHTML, like Gecko) Chrome/131.0.0.0 Safari/537.36" version="25.0.1">
  <diagram name="Page-1" id="XJEBUpwNgewf0A4MmZgh">
    <mxGraphModel dx="1050" dy="596" grid="1" gridSize="10" guides="1" tooltips="1" connect="1" arrows="1" fold="1" page="1" pageScale="1" pageWidth="850" pageHeight="1100" math="0" shadow="0">
      <root>
        <mxCell id="0" />
        <mxCell id="1" parent="0" />
        <mxCell id="eT5ScM0dkPaTSLwXPgku-2" style="edgeStyle=orthogonalEdgeStyle;rounded=0;orthogonalLoop=1;jettySize=auto;html=1;exitX=0.5;exitY=1;exitDx=0;exitDy=0;" edge="1" parent="1" source="eT5ScM0dkPaTSLwXPgku-1">
          <mxGeometry relative="1" as="geometry">
            <mxPoint x="400" y="160" as="targetPoint" />
          </mxGeometry>
        </mxCell>
        <mxCell id="eT5ScM0dkPaTSLwXPgku-1" value="&lt;font style=&quot;font-size: 18px;&quot;&gt;start&lt;/font&gt;" style="ellipse;whiteSpace=wrap;html=1;" vertex="1" parent="1">
          <mxGeometry x="340" y="50" width="120" height="80" as="geometry" />
        </mxCell>
        <mxCell id="eT5ScM0dkPaTSLwXPgku-4" style="edgeStyle=orthogonalEdgeStyle;rounded=0;orthogonalLoop=1;jettySize=auto;html=1;" edge="1" parent="1" source="eT5ScM0dkPaTSLwXPgku-3">
          <mxGeometry relative="1" as="geometry">
            <mxPoint x="415" y="240" as="targetPoint" />
          </mxGeometry>
        </mxCell>
        <mxCell id="eT5ScM0dkPaTSLwXPgku-3" value="read height, weight" style="shape=parallelogram;perimeter=parallelogramPerimeter;whiteSpace=wrap;html=1;fixedSize=1;" vertex="1" parent="1">
          <mxGeometry x="330" y="160" width="170" height="50" as="geometry" />
        </mxCell>
        <mxCell id="eT5ScM0dkPaTSLwXPgku-6" style="edgeStyle=orthogonalEdgeStyle;rounded=0;orthogonalLoop=1;jettySize=auto;html=1;" edge="1" parent="1" source="eT5ScM0dkPaTSLwXPgku-5">
          <mxGeometry relative="1" as="geometry">
            <mxPoint x="415" y="340" as="targetPoint" />
          </mxGeometry>
        </mxCell>
        <mxCell id="eT5ScM0dkPaTSLwXPgku-5" value="BMI=weight/(height*height" style="rounded=0;whiteSpace=wrap;html=1;" vertex="1" parent="1">
          <mxGeometry x="332.5" y="240" width="165" height="60" as="geometry" />
        </mxCell>
        <mxCell id="eT5ScM0dkPaTSLwXPgku-9" value="No" style="edgeStyle=orthogonalEdgeStyle;rounded=0;orthogonalLoop=1;jettySize=auto;html=1;" edge="1" parent="1" source="eT5ScM0dkPaTSLwXPgku-7">
          <mxGeometry relative="1" as="geometry">
            <mxPoint x="580" y="380" as="targetPoint" />
          </mxGeometry>
        </mxCell>
        <mxCell id="eT5ScM0dkPaTSLwXPgku-10" value="yes" style="edgeStyle=orthogonalEdgeStyle;rounded=0;orthogonalLoop=1;jettySize=auto;html=1;" edge="1" parent="1" source="eT5ScM0dkPaTSLwXPgku-7">
          <mxGeometry relative="1" as="geometry">
            <mxPoint x="415" y="470" as="targetPoint" />
          </mxGeometry>
        </mxCell>
        <mxCell id="eT5ScM0dkPaTSLwXPgku-7" value="if BMI&amp;lt;=18.5" style="rhombus;whiteSpace=wrap;html=1;" vertex="1" parent="1">
          <mxGeometry x="350" y="340" width="130" height="80" as="geometry" />
        </mxCell>
        <mxCell id="eT5ScM0dkPaTSLwXPgku-12" value="Print BMI and&lt;div&gt;&quot;YOU&lt;br/&gt;ARE UNDER WEIGHT!!&quot;&lt;/div&gt;" style="shape=parallelogram;perimeter=parallelogramPerimeter;whiteSpace=wrap;html=1;fixedSize=1;" vertex="1" parent="1">
          <mxGeometry x="310" y="470" width="200" height="60" as="geometry" />
        </mxCell>
        <mxCell id="eT5ScM0dkPaTSLwXPgku-14" value="No" style="edgeStyle=orthogonalEdgeStyle;rounded=0;orthogonalLoop=1;jettySize=auto;html=1;" edge="1" parent="1" source="eT5ScM0dkPaTSLwXPgku-13">
          <mxGeometry relative="1" as="geometry">
            <mxPoint x="760" y="380" as="targetPoint" />
          </mxGeometry>
        </mxCell>
        <mxCell id="eT5ScM0dkPaTSLwXPgku-15" value="yes" style="edgeStyle=orthogonalEdgeStyle;rounded=0;orthogonalLoop=1;jettySize=auto;html=1;" edge="1" parent="1" source="eT5ScM0dkPaTSLwXPgku-13">
          <mxGeometry relative="1" as="geometry">
            <mxPoint x="640" y="490" as="targetPoint" />
          </mxGeometry>
        </mxCell>
        <mxCell id="eT5ScM0dkPaTSLwXPgku-13" value="If BMI&amp;gt;18.5 &amp;amp;&amp;amp; BMI&amp;lt;=24.9" style="rhombus;whiteSpace=wrap;html=1;" vertex="1" parent="1">
          <mxGeometry x="580" y="323.75" width="120" height="112.5" as="geometry" />
        </mxCell>
        <mxCell id="eT5ScM0dkPaTSLwXPgku-16" value="Print BMI and&amp;nbsp;&quot;CONGRATULATIONS!&lt;br/&gt;YOU ARE NORMAL.&quot;" style="shape=parallelogram;perimeter=parallelogramPerimeter;whiteSpace=wrap;html=1;fixedSize=1;" vertex="1" parent="1">
          <mxGeometry x="545" y="480" width="190" height="60" as="geometry" />
        </mxCell>
        <mxCell id="eT5ScM0dkPaTSLwXPgku-18" value="yes" style="edgeStyle=orthogonalEdgeStyle;rounded=0;orthogonalLoop=1;jettySize=auto;html=1;" edge="1" parent="1" source="eT5ScM0dkPaTSLwXPgku-17">
          <mxGeometry relative="1" as="geometry">
            <mxPoint x="820" y="480" as="targetPoint" />
          </mxGeometry>
        </mxCell>
        <mxCell id="eT5ScM0dkPaTSLwXPgku-22" style="edgeStyle=orthogonalEdgeStyle;rounded=0;orthogonalLoop=1;jettySize=auto;html=1;" edge="1" parent="1" source="eT5ScM0dkPaTSLwXPgku-17">
          <mxGeometry relative="1" as="geometry">
            <mxPoint x="950" y="380" as="targetPoint" />
          </mxGeometry>
        </mxCell>
        <mxCell id="eT5ScM0dkPaTSLwXPgku-17" value="If BMI &amp;gt;=25 &amp;amp;&amp;amp; BMI&amp;lt;==29.9" style="rhombus;whiteSpace=wrap;html=1;" vertex="1" parent="1">
          <mxGeometry x="760" y="320" width="120" height="120" as="geometry" />
        </mxCell>
        <mxCell id="eT5ScM0dkPaTSLwXPgku-21" value="Print BMI and&amp;nbsp;&quot;YOU&lt;br/&gt;ARE OVERWEIGHT!!&quot;" style="shape=parallelogram;perimeter=parallelogramPerimeter;whiteSpace=wrap;html=1;fixedSize=1;" vertex="1" parent="1">
          <mxGeometry x="750" y="480" width="170" height="60" as="geometry" />
        </mxCell>
        <mxCell id="eT5ScM0dkPaTSLwXPgku-23" value="Print BMI and&amp;nbsp;&quot;YOU&lt;br/&gt;ARE OBESE!&quot;" style="shape=parallelogram;perimeter=parallelogramPerimeter;whiteSpace=wrap;html=1;fixedSize=1;" vertex="1" parent="1">
          <mxGeometry x="940" y="350" width="140" height="60" as="geometry" />
        </mxCell>
        <mxCell id="eT5ScM0dkPaTSLwXPgku-29" value="Ask if you want to continue" style="shape=parallelogram;perimeter=parallelogramPerimeter;whiteSpace=wrap;html=1;fixedSize=1;" vertex="1" parent="1">
          <mxGeometry x="630" y="780" width="200" height="60" as="geometry" />
        </mxCell>
        <mxCell id="eT5ScM0dkPaTSLwXPgku-31" value="" style="endArrow=classic;html=1;rounded=0;exitX=0.456;exitY=1;exitDx=0;exitDy=0;exitPerimeter=0;entryX=0;entryY=0.5;entryDx=0;entryDy=0;" edge="1" parent="1" source="eT5ScM0dkPaTSLwXPgku-12" target="eT5ScM0dkPaTSLwXPgku-29">
          <mxGeometry width="50" height="50" relative="1" as="geometry">
            <mxPoint x="590" y="710" as="sourcePoint" />
            <mxPoint x="390" y="810" as="targetPoint" />
            <Array as="points">
              <mxPoint x="400" y="810" />
            </Array>
          </mxGeometry>
        </mxCell>
        <mxCell id="eT5ScM0dkPaTSLwXPgku-32" value="" style="endArrow=classic;html=1;rounded=0;exitX=0.5;exitY=1;exitDx=0;exitDy=0;entryX=0.112;entryY=-0.033;entryDx=0;entryDy=0;entryPerimeter=0;" edge="1" parent="1" source="eT5ScM0dkPaTSLwXPgku-16" target="eT5ScM0dkPaTSLwXPgku-29">
          <mxGeometry width="50" height="50" relative="1" as="geometry">
            <mxPoint x="660" y="690" as="sourcePoint" />
            <mxPoint x="710" y="640" as="targetPoint" />
          </mxGeometry>
        </mxCell>
        <mxCell id="eT5ScM0dkPaTSLwXPgku-33" value="" style="endArrow=classic;html=1;rounded=0;exitX=0.5;exitY=1;exitDx=0;exitDy=0;entryX=0.9;entryY=0;entryDx=0;entryDy=0;entryPerimeter=0;" edge="1" parent="1" source="eT5ScM0dkPaTSLwXPgku-21" target="eT5ScM0dkPaTSLwXPgku-29">
          <mxGeometry width="50" height="50" relative="1" as="geometry">
            <mxPoint x="660" y="690" as="sourcePoint" />
            <mxPoint x="710" y="640" as="targetPoint" />
          </mxGeometry>
        </mxCell>
        <mxCell id="eT5ScM0dkPaTSLwXPgku-34" value="" style="endArrow=classic;html=1;rounded=0;exitX=0.5;exitY=1;exitDx=0;exitDy=0;" edge="1" parent="1" source="eT5ScM0dkPaTSLwXPgku-23">
          <mxGeometry width="50" height="50" relative="1" as="geometry">
            <mxPoint x="660" y="690" as="sourcePoint" />
            <mxPoint x="830" y="800" as="targetPoint" />
            <Array as="points">
              <mxPoint x="1020" y="800" />
              <mxPoint x="830" y="800" />
            </Array>
          </mxGeometry>
        </mxCell>
        <mxCell id="eT5ScM0dkPaTSLwXPgku-35" value="" style="endArrow=classic;html=1;rounded=0;exitX=0.5;exitY=1;exitDx=0;exitDy=0;" edge="1" parent="1" source="eT5ScM0dkPaTSLwXPgku-29" target="eT5ScM0dkPaTSLwXPgku-36">
          <mxGeometry width="50" height="50" relative="1" as="geometry">
            <mxPoint x="660" y="930" as="sourcePoint" />
            <mxPoint x="730" y="930" as="targetPoint" />
          </mxGeometry>
        </mxCell>
        <mxCell id="eT5ScM0dkPaTSLwXPgku-41" style="edgeStyle=orthogonalEdgeStyle;rounded=0;orthogonalLoop=1;jettySize=auto;html=1;exitX=0.5;exitY=1;exitDx=0;exitDy=0;" edge="1" parent="1" source="eT5ScM0dkPaTSLwXPgku-36" target="eT5ScM0dkPaTSLwXPgku-42">
          <mxGeometry relative="1" as="geometry">
            <mxPoint x="730" y="1060" as="targetPoint" />
          </mxGeometry>
        </mxCell>
        <mxCell id="eT5ScM0dkPaTSLwXPgku-36" value="If number = 0" style="rhombus;whiteSpace=wrap;html=1;" vertex="1" parent="1">
          <mxGeometry x="660" y="890" width="140" height="80" as="geometry" />
        </mxCell>
        <mxCell id="eT5ScM0dkPaTSLwXPgku-37" value="List Item" style="text;strokeColor=none;fillColor=none;align=left;verticalAlign=middle;spacingLeft=4;spacingRight=4;overflow=hidden;points=[[0,0.5],[1,0.5]];portConstraint=eastwest;rotatable=0;whiteSpace=wrap;html=1;" vertex="1" parent="1">
          <mxGeometry x="640" y="890" width="80" height="30" as="geometry" />
        </mxCell>
        <mxCell id="eT5ScM0dkPaTSLwXPgku-38" value="no" style="endArrow=classic;html=1;rounded=0;entryX=0;entryY=0.25;entryDx=0;entryDy=0;exitX=0;exitY=0.5;exitDx=0;exitDy=0;" edge="1" parent="1" source="eT5ScM0dkPaTSLwXPgku-36" target="eT5ScM0dkPaTSLwXPgku-3">
          <mxGeometry width="50" height="50" relative="1" as="geometry">
            <mxPoint x="640" y="960" as="sourcePoint" />
            <mxPoint x="260" y="180" as="targetPoint" />
            <Array as="points">
              <mxPoint x="260" y="930" />
              <mxPoint x="260" y="175" />
            </Array>
          </mxGeometry>
        </mxCell>
        <mxCell id="eT5ScM0dkPaTSLwXPgku-40" value="No" style="edgeLabel;html=1;align=center;verticalAlign=middle;resizable=0;points=[];" vertex="1" connectable="0" parent="eT5ScM0dkPaTSLwXPgku-38">
          <mxGeometry x="-0.9187" y="-3" relative="1" as="geometry">
            <mxPoint as="offset" />
          </mxGeometry>
        </mxCell>
        <mxCell id="eT5ScM0dkPaTSLwXPgku-42" value="Stop" style="ellipse;whiteSpace=wrap;html=1;" vertex="1" parent="1">
          <mxGeometry x="670" y="1020" width="120" height="80" as="geometry" />
        </mxCell>
      </root>
    </mxGraphModel>
  </diagram>
</mxfile>
